<svg width="1415" height="1415" viewBox="0 0 1415 1415" fill="none" xmlns="http://www.w3.org/2000/svg">
<g clip-path="url(#clip0_49_305)">
<path d="M962.272 441.941L991.735 471.404C1054.25 533.916 1089.37 618.701 1089.37 707.106C1089.37 795.512 1054.25 880.296 991.735 942.809L962.272 972.271L697.107 707.106L962.272 441.941ZM756.032 707.106L962.272 913.346C1016.97 858.648 1047.7 784.461 1047.7 707.106C1047.7 629.752 1016.97 555.565 962.272 500.867L756.032 707.106ZM579.256 707.106L814.958 942.809C752.446 1005.32 667.661 1040.44 579.256 1040.44C490.85 1040.44 406.066 1005.32 343.553 942.809C281.041 880.296 245.922 795.512 245.922 707.106C245.922 618.701 281.041 533.916 343.553 471.404C406.066 408.892 490.85 373.773 579.256 373.773C667.661 373.773 752.446 408.892 814.958 471.404L579.256 707.106ZM520.33 707.106L753.97 473.466C639.654 388.024 477.02 396.863 373.016 500.867C318.318 555.565 287.589 629.752 287.589 707.106C287.589 784.461 318.318 858.648 373.016 913.346C477.02 1017.35 639.654 1026.19 753.97 940.746L520.33 707.106Z" fill="#030712"/>
</g>
<defs>
<clipPath id="clip0_49_305">
<rect width="1000" height="1000" fill="white" transform="translate(707.107) rotate(45)"/>
</clipPath>
</defs>
</svg>
